<svg xmlns="http://www.w3.org/2000/svg" viewBox="0 0 512 512">
  <defs>
    <linearGradient id="g" x1="0" y1="0" x2="1" y2="1">
      <stop offset="0" stop-color="#14b8a6"/>
      <stop offset="1" stop-color="#0f766e"/>
    </linearGradient>
  </defs>
  <rect width="512" height="512" rx="112" fill="url(#g)"/>
  <circle cx="390" cy="122" r="34" fill="#fbbf24"/>
  <circle cx="328" cy="78" r="17" fill="#ccfbf1" opacity=".9"/>
  <path d="M204 76h104v56l-26 38v44c48 22 78 71 78 129v60c0 24-19 43-43 43H195c-24 0-43-19-43-43v-60c0-58 30-107 78-129v-44l-26-38V76Z" fill="#fff"/>
  <path d="M187 314h138v91H187z" fill="#fbbf24"/>
  <path d="M218 76h76v37h-76z" fill="#0f172a" opacity=".85"/>
  <circle cx="260" cy="262" r="24" fill="#14b8a6"/>
  <circle cx="313" cy="286" r="13" fill="#5eead4"/>
  <circle cx="216" cy="276" r="10" fill="#99f6e4"/>
</svg>
